<svg width="305" height="305" viewBox="0 0 305 305" fill="none" xmlns="http://www.w3.org/2000/svg">
<g filter="url(#filter0_ii_1261_7110)">
<rect width="305" height="305" rx="15" fill="#232428"/>
<path d="M184.83 71.1893C186.616 70.3194 189.772 72.7255 189.772 72.7255C200.65 78.3495 209.411 91.5943 211.51 102.677C222.388 110.285 228.798 114.492 235.287 125.078C236.523 127.038 237.644 129.032 238.652 131.059C239.537 131.203 240.421 131.539 241.257 132.097L255.442 141.566C258.753 143.777 259.328 148.399 256.66 151.349L245.227 163.984C245.217 163.995 245.206 164.006 245.196 164.016C244.546 176.559 240.958 187.895 234.428 198.023C227.367 209.271 216.966 218.038 203.226 224.323C189.486 230.774 172.978 234 153.703 234C134.428 234 117.824 230.774 103.893 224.323C90.1526 218.038 79.752 209.354 72.6909 198.271C67.0255 189.247 63.635 179.211 62.5151 168.163C60.5689 168.096 58.6331 167.178 57.3569 165.301L47.7837 151.214C45.549 147.925 46.7588 143.427 50.3442 141.692L65.7026 134.264C66.4883 133.884 67.2875 133.673 68.0708 133.611C69.4113 130.744 70.9578 127.911 72.6909 125.078C79.5611 113.996 84.6346 110.12 95.894 102.677C98.375 93.2483 107.9 79.011 117.633 72.7255C117.652 72.7109 120.794 70.3225 122.575 71.1893C124.219 71.9901 123.933 75.1907 123.931 75.2069C123.55 76.1993 123.359 77.7707 123.359 79.9208C123.359 81.7403 124.163 87.8608 124.354 88.8534C134.85 85.2144 145.05 83.4774 154.592 83.4774C164.134 83.4775 174.334 85.0491 184.83 88.8534C185.02 88.0262 184.83 83.1587 184.83 81.1737C184.83 78.8581 183.856 76.1995 183.474 75.2069C183.092 74.2145 183.182 71.9922 184.83 71.1893ZM120.88 144.32C116.171 144.32 112.353 148.139 112.353 152.849V161.086C112.353 165.796 116.171 169.614 120.88 169.614C125.59 169.614 129.409 165.796 129.409 161.086V152.849C129.409 148.139 125.59 144.32 120.88 144.32ZM188.469 144.321C183.76 144.321 179.942 148.139 179.942 152.849V161.087C179.942 165.796 183.76 169.614 188.469 169.614C193.179 169.614 196.997 165.796 196.998 161.087V152.849C196.997 148.139 193.179 144.321 188.469 144.321Z" fill="url(#paint0_linear_1261_7110)"/>
</g>
<defs>
<filter id="filter0_ii_1261_7110" x="-1.96304" y="-1.96304" width="308.926" height="306.963" filterUnits="userSpaceOnUse" color-interpolation-filters="sRGB">
<feFlood flood-opacity="0" result="BackgroundImageFix"/>
<feBlend mode="normal" in="SourceGraphic" in2="BackgroundImageFix" result="shape"/>
<feColorMatrix in="SourceAlpha" type="matrix" values="0 0 0 0 0 0 0 0 0 0 0 0 0 0 0 0 0 0 127 0" result="hardAlpha"/>
<feOffset dx="1.96304" dy="-1.96304"/>
<feGaussianBlur stdDeviation="3"/>
<feComposite in2="hardAlpha" operator="arithmetic" k2="-1" k3="1"/>
<feColorMatrix type="matrix" values="0 0 0 0 0.360784 0 0 0 0 0.360784 0 0 0 0 0.360784 0 0 0 1 0"/>
<feBlend mode="normal" in2="shape" result="effect1_innerShadow_1261_7110"/>
<feColorMatrix in="SourceAlpha" type="matrix" values="0 0 0 0 0 0 0 0 0 0 0 0 0 0 0 0 0 0 127 0" result="hardAlpha"/>
<feMorphology radius="0.56087" operator="dilate" in="SourceAlpha" result="effect2_innerShadow_1261_7110"/>
<feOffset dx="-1.96304"/>
<feGaussianBlur stdDeviation="3"/>
<feComposite in2="hardAlpha" operator="arithmetic" k2="-1" k3="1"/>
<feColorMatrix type="matrix" values="0 0 0 0 0.360784 0 0 0 0 0.360784 0 0 0 0 0.360784 0 0 0 1 0"/>
<feBlend mode="normal" in2="effect1_innerShadow_1261_7110" result="effect2_innerShadow_1261_7110"/>
</filter>
<linearGradient id="paint0_linear_1261_7110" x1="152.5" y1="70.9999" x2="152.5" y2="234" gradientUnits="userSpaceOnUse">
<stop stop-color="#CFFFFA"/>
<stop offset="1" stop-color="#00FFE1"/>
</linearGradient>
</defs>
</svg>
